<svg xmlns="http://www.w3.org/2000/svg" xmlns:xlink="http://www.w3.org/1999/xlink" width="500" zoomAndPan="magnify" viewBox="0 0 375 374.999991" height="500" preserveAspectRatio="xMidYMid meet" version="1.0"><defs><clipPath id="e4681e9e0a"><path d="M 31.230469 52 L 343.980469 52 L 343.980469 323 L 31.230469 323 Z M 31.230469 52 " clip-rule="nonzero"/></clipPath></defs><path fill="#53c1de" d="M 215.53125 187.207031 C 215.53125 172.265625 203.027344 160.152344 187.605469 160.152344 C 172.179688 160.152344 159.675781 172.265625 159.675781 187.207031 C 159.675781 202.148438 172.179688 214.257812 187.605469 214.257812 C 203.027344 214.257812 215.53125 202.148438 215.53125 187.207031 Z M 215.53125 187.207031 " fill-opacity="1" fill-rule="nonzero"/><g clip-path="url(#e4681e9e0a)"><path fill="#53c1de" d="M 278.304688 136.984375 C 284.203125 113.769531 291.617188 70.71875 265.484375 56.125 C 239.472656 41.59375 205.621094 69.4375 187.75 86.152344 C 169.925781 69.605469 135.128906 41.878906 109.015625 56.519531 C 83.015625 71.101562 91.035156 113.433594 97.0625 136.796875 C 72.808594 143.46875 31.230469 157.839844 31.230469 187.207031 C 31.230469 216.488281 72.765625 232.125 96.875 238.792969 C 90.824219 262.28125 83.207031 304.011719 109.242188 318.558594 C 135.449219 333.195312 170.140625 306.132812 188.183594 289.234375 C 206.171875 306.046875 239.695312 333.289062 265.710938 318.703125 C 291.808594 304.066406 285.011719 261.59375 278.984375 238.101562 C 302.355469 231.417969 343.980469 216.121094 343.980469 187.207031 C 343.980469 158.125 302.179688 143.632812 278.304688 136.984375 Z M 275.34375 225.648438 C 271.386719 213.511719 266.042969 200.605469 259.507812 187.269531 C 265.746094 174.253906 270.878906 161.511719 274.726562 149.453125 C 292.226562 154.367188 330.621094 165.597656 330.621094 187.207031 C 330.621094 209.015625 293.777344 220.355469 275.34375 225.648438 Z M 259.015625 307.5 C 239.605469 318.382812 210.769531 292.332031 197.484375 279.953125 C 206.296875 270.613281 215.105469 259.761719 223.699219 247.707031 C 238.820312 246.410156 253.105469 244.285156 266.058594 241.382812 C 270.300781 258.003906 278.511719 296.566406 259.015625 307.5 Z M 115.917969 307.347656 C 96.503906 296.503906 105.378906 259.265625 109.828125 241.960938 C 122.640625 244.707031 136.820312 246.683594 151.976562 247.871094 C 160.628906 259.667969 169.691406 270.507812 178.820312 280.003906 C 167.539062 290.574219 135.421875 318.238281 115.917969 307.347656 Z M 44.589844 187.207031 C 44.589844 165.316406 82.75 154.164062 100.648438 149.261719 C 104.5625 161.589844 109.699219 174.484375 115.894531 187.523438 C 109.617188 200.753906 104.410156 213.851562 100.460938 226.324219 C 83.394531 221.59375 44.589844 209.109375 44.589844 187.207031 Z M 115.710938 67.722656 C 135.203125 56.792969 165.449219 83.410156 178.386719 95.390625 C 169.300781 104.839844 160.324219 115.601562 151.746094 127.324219 C 137.035156 128.648438 122.957031 130.765625 110.011719 133.609375 C 105.15625 114.769531 96.238281 78.640625 115.710938 67.722656 Z M 233.257812 141.390625 C 243.238281 142.613281 252.796875 144.234375 261.773438 146.21875 C 259.082031 154.585938 255.722656 163.335938 251.765625 172.304688 C 246.03125 161.765625 239.875 151.4375 233.257812 141.390625 Z M 187.753906 104.636719 C 193.914062 111.105469 200.085938 118.324219 206.160156 126.160156 C 193.84375 125.59375 181.507812 125.59375 169.195312 126.152344 C 175.269531 118.390625 181.496094 111.179688 187.753906 104.636719 Z M 123.558594 172.296875 C 119.667969 163.359375 116.339844 154.570312 113.621094 146.082031 C 122.542969 144.148438 132.058594 142.570312 141.972656 141.367188 C 135.339844 151.390625 129.195312 161.714844 123.558594 172.296875 Z M 142.257812 233.96875 C 132.015625 232.859375 122.355469 231.359375 113.4375 229.480469 C 116.199219 220.84375 119.601562 211.863281 123.574219 202.734375 C 129.285156 213.425781 135.527344 223.847656 142.257812 233.96875 Z M 188.125 270.6875 C 181.792969 264.070312 175.476562 256.75 169.304688 248.875 C 181.691406 249.347656 194.101562 249.347656 206.484375 248.8125 C 200.394531 256.828125 194.242188 264.160156 188.125 270.6875 Z M 251.890625 202.269531 C 256.074219 211.5 259.597656 220.429688 262.394531 228.917969 C 253.328125 230.921875 243.535156 232.539062 233.222656 233.738281 C 239.886719 223.5 246.140625 213.011719 251.890625 202.269531 Z M 216.246094 235.304688 C 197.300781 236.617188 178.238281 236.601562 159.289062 235.414062 C 148.519531 220.175781 138.933594 204.152344 130.660156 187.519531 C 138.894531 170.917969 148.410156 154.925781 159.128906 139.710938 C 178.089844 138.324219 197.171875 138.320312 216.136719 139.722656 C 226.761719 154.933594 236.261719 170.882812 244.6875 187.332031 C 236.363281 203.925781 226.796875 219.949219 216.246094 235.304688 Z M 258.808594 67.335938 C 278.308594 78.230469 269.628906 116.917969 265.371094 133.742188 C 252.394531 130.84375 238.304688 128.683594 223.554688 127.34375 C 214.957031 115.488281 206.054688 104.710938 197.117188 95.382812 C 210.222656 83.144531 239.5 56.550781 258.808594 67.335938 Z M 258.808594 67.335938 " fill-opacity="1" fill-rule="evenodd"/></g></svg>